<svg width="24" height="24" viewBox="0 0 24 24" fill="none" xmlns="http://www.w3.org/2000/svg">
<path d="M19.7222 2.00619C19.7017 2.0185 19.0369 2.17441 18.2448 2.35905C17.4568 2.54369 16.792 2.71192 16.7756 2.72833C16.7509 2.74884 19.3529 6.65086 19.4965 6.80267C19.5129 6.82319 19.9849 6.72882 20.5471 6.60162C21.1094 6.47443 21.6101 6.35954 21.6593 6.34723C21.7865 6.32261 21.9466 6.15028 21.9794 6.01488C22.0081 5.87538 21.2612 3.01144 21.1135 2.69961C20.9247 2.30571 20.4938 2.03081 20.03 2.00619C19.8823 1.99798 19.7468 1.99798 19.7222 2.00619Z" fill="black"/>
<path d="M14.0381 3.35189C13.1024 3.57756 12.3267 3.7663 12.3226 3.7745C12.3021 3.79092 15.2611 7.72165 15.3144 7.75858C15.3596 7.7832 18.5114 7.08568 18.5566 7.04054C18.5853 7.01182 15.8397 2.9621 15.7823 2.94979C15.7577 2.94568 14.9738 3.12622 14.0381 3.35189Z" fill="black"/>
<path d="M9.69634 4.38595C8.8304 4.5911 8.12451 4.77574 8.12451 4.79215C8.12451 4.81677 10.7264 8.67776 10.8208 8.79674C10.8331 8.81316 14.3338 8.02537 14.3585 8.00075C14.3913 7.97203 11.3667 4.00026 11.3174 4.00436C11.2887 4.00436 10.5623 4.17669 9.69634 4.38595Z" fill="black"/>
<path d="M5.39911 5.40343C4.45109 5.6291 3.67134 5.81784 3.66313 5.82604C3.65082 5.83835 6.26505 9.69523 6.33893 9.77319C6.37176 9.81012 6.76984 9.73626 8.10774 9.42853C9.05576 9.21518 9.84373 9.02643 9.86014 9.01002C9.89298 8.9813 7.19666 4.98081 7.15151 4.98902C7.1351 4.98902 6.34713 5.17776 5.39911 5.40343Z" fill="black"/>
<path d="M2.19818 6.17076C1.7057 6.30206 1.59489 6.3595 1.36917 6.59337C1.16397 6.80673 1.04086 7.06523 1.00392 7.36885C0.983399 7.5617 1.03265 7.79967 1.41432 9.3055L1.84934 11.0247V12.19V13.3552H2.88765H3.92185L4.57438 11.714C5.08738 10.4256 5.24744 10.0728 5.30079 10.0728C5.34183 10.0728 5.38287 10.0564 5.39928 10.0358C5.43622 9.9743 2.75222 6.05177 2.67424 6.05587C2.6373 6.05587 2.4239 6.10921 2.19818 6.17076Z" fill="black"/>
<path d="M5.57184 11.5827C5.19427 12.5223 4.88647 13.3101 4.88647 13.3265C4.88647 13.3429 5.65802 13.3511 6.59784 13.347L8.3092 13.3347L8.99867 11.6114C9.37623 10.6636 9.68813 9.88405 9.68813 9.87995C9.68813 9.87174 8.91659 9.86764 7.97267 9.86764H6.2572L5.57184 11.5827Z" fill="black"/>
<path d="M9.94255 11.6114L9.24487 13.3552H10.9603H12.6758L13.3735 11.6114L14.0712 9.86762H12.3557H10.6402L9.94255 11.6114Z" fill="black"/>
<path d="M15.0109 9.89634C14.9945 9.92096 13.9234 12.588 13.6402 13.3019C13.6238 13.3429 13.9808 13.3552 15.3392 13.3552H17.0588L17.7442 11.6401C18.1217 10.7005 18.4295 9.91686 18.4295 9.89634C18.4295 9.85941 15.0355 9.85941 15.0109 9.89634Z" fill="black"/>
<path d="M18.7289 11.5417C18.3637 12.4608 18.0518 13.2444 18.0354 13.2814C18.0107 13.3511 18.1215 13.3552 20.0053 13.3552H21.9998V11.7961C21.9998 10.4872 21.9916 10.2123 21.9382 10.1138C21.811 9.86762 21.8028 9.86762 20.5429 9.86762H19.3938L18.7289 11.5417Z" fill="black"/>
<path d="M1.84961 17.6511C1.84961 21.3808 1.84551 21.3152 2.09996 21.8157C2.37082 22.3491 3.00283 22.8292 3.60612 22.9523C3.90981 23.0138 19.8702 23.0179 20.219 22.9523C21.0522 22.8005 21.758 22.103 21.9386 21.2536C21.9879 21.0156 22.0002 20.4043 22.0002 17.6101V14.2579H11.9249H1.84961V17.6511Z" fill="black"/>
</svg>
