<svg width="24" height="24" viewBox="0 0 24 24" fill="none" xmlns="http://www.w3.org/2000/svg">
<path d="M1.07808 2.78437C0.660889 2.89687 0.314014 3.1875 0.131201 3.58594L0.0233887 3.82031L0.0140137 10.4531L0.00463867 17.0859L0.0983886 16.9125C0.149951 16.8141 0.862451 15.3281 1.68276 13.6078C2.50308 11.8828 3.25776 10.3078 3.3562 10.1016C3.6937 9.4125 4.25151 9 4.97807 8.90625C5.17964 8.87812 8.3437 8.85937 12.764 8.85937H20.2078L20.1937 7.72031C20.1796 6.6375 20.1749 6.57656 20.0718 6.375C19.9171 6.07969 19.6218 5.78906 19.3406 5.6625L19.1015 5.55469L14.5312 5.54062L9.96089 5.52656L9.11245 4.34531C8.50776 3.50625 8.20307 3.12187 8.05307 3.01406C7.64995 2.72344 7.61245 2.71875 4.28901 2.72344C2.07651 2.72344 1.23276 2.74219 1.07808 2.78437Z" fill="black"/>
<path d="M5.81255 10.2656C5.22193 10.3547 4.72036 10.6594 4.41568 11.1094C4.33599 11.2266 3.3188 13.3172 2.1563 15.7594C0.135989 19.9969 0.0422394 20.2078 0.0891144 20.3531C0.192239 20.6578 0.478177 20.9672 0.815677 21.1406L1.13911 21.3047H10.0313H18.9188L19.2751 21.1266C19.9079 20.8172 19.8469 20.9156 21.9844 16.6406C23.1985 14.2125 23.911 12.7266 23.9485 12.5719C24.0235 12.2156 24.0141 11.9578 23.9063 11.6156C23.7235 11.0203 23.2547 10.5516 22.6126 10.3266C22.3969 10.2516 21.8204 10.2422 14.2266 10.2375C9.74068 10.2328 5.95318 10.2469 5.81255 10.2656Z" fill="black"/>
</svg>
