<svg width="24" height="24" viewBox="0 0 24 24" fill="none" xmlns="http://www.w3.org/2000/svg">
<path d="M6.03288 4.08283C4.5985 4.22815 3.34694 5.06721 2.36725 6.53908C1.15788 8.35315 0.379753 10.6078 0.084441 13.1485C-0.00462145 13.9266 0.00944104 15.9985 0.107878 16.8047C0.276628 18.1547 0.511003 18.8578 0.951628 19.3453C1.49069 19.9313 2.4235 20.1047 3.15944 19.7578C3.80631 19.4531 4.98756 18.4313 6.07038 17.2453C7.21412 15.9938 7.24694 15.9563 7.561 15.8156L7.85162 15.6797H12.0001H16.1485L16.4532 15.825C16.7016 15.9422 16.8376 16.0547 17.1797 16.4297C19.0641 18.4969 20.0438 19.3828 20.8922 19.7719C21.1876 19.9078 21.2766 19.9266 21.6188 19.9266C22.8938 19.9266 23.5501 19.1297 23.8313 17.25C24.0704 15.6188 24.0469 13.7766 23.761 12.0703C23.2688 9.10783 21.8204 6.20627 20.2407 5.00158C19.3782 4.34533 18.5672 4.06877 17.5079 4.06877C16.3266 4.06877 15.1641 4.45315 13.9501 5.24533C13.7532 5.3719 13.4532 5.52658 13.2751 5.58752C12.9844 5.68596 12.886 5.69533 12.0001 5.69533C11.1141 5.69533 11.0157 5.68596 10.7251 5.58752C10.5469 5.52658 10.2516 5.37658 10.0688 5.25471C9.01881 4.57033 7.93131 4.15783 7.03131 4.0969C6.811 4.08283 6.58131 4.06877 6.51569 4.0594C6.45006 4.05471 6.23444 4.06408 6.03288 4.08283ZM17.3204 6.91408C17.8922 7.2469 18.1219 8.02033 17.8219 8.61096C17.611 9.01877 17.1001 9.32815 16.636 9.32815C16.1766 9.32815 15.6891 8.99533 15.4782 8.53596C15.3797 8.32502 15.3657 8.23596 15.3844 7.95002C15.4079 7.58908 15.4829 7.40627 15.7126 7.14846C16.0876 6.71721 16.8094 6.6094 17.3204 6.91408ZM7.26569 7.72502L7.5235 7.8094L7.53756 8.61565L7.54694 9.4219H8.32037H9.09381L9.22037 9.66565C9.39381 9.99846 9.40319 10.4485 9.23912 10.8375L9.13131 11.1094H8.29225H7.45319V11.911V12.7078L7.23287 12.811C6.90006 12.9656 6.29069 12.9563 6.01413 12.8016L5.81256 12.6844V11.8969V11.1094H5.02506H4.23756L4.16256 10.9547C3.96569 10.5422 3.961 10.0313 4.14381 9.59065L4.21413 9.4219H5.03444H5.85944V8.60158C5.85944 8.15158 5.86413 7.78127 5.8735 7.78127C5.87819 7.78127 5.96725 7.74846 6.07038 7.71096C6.32819 7.61721 6.94694 7.62658 7.26569 7.72502ZM20.5735 8.84533C21.3001 9.29533 21.4032 10.2891 20.7844 10.8891C20.5688 11.0953 20.1891 11.25 19.8985 11.25C19.4438 11.25 18.9422 10.9313 18.7266 10.5C18.6047 10.2656 18.5813 9.81096 18.6751 9.5344C18.9329 8.76096 19.8797 8.41877 20.5735 8.84533ZM17.2313 10.4438C17.6626 10.6641 17.9063 11.0438 17.9438 11.5453C17.9626 11.8313 17.9532 11.8875 17.8126 12.1688C17.5594 12.6844 17.1188 12.9281 16.5235 12.8813C15.8438 12.825 15.3704 12.286 15.3797 11.5828C15.3844 11.0719 15.6282 10.6875 16.0829 10.4578C16.3547 10.3172 16.4157 10.3078 16.711 10.3266C16.9219 10.336 17.1094 10.3828 17.2313 10.4438Z" fill="black"/>
</svg>
