<svg width="24" height="24" viewBox="0 0 24 24" fill="none" xmlns="http://www.w3.org/2000/svg">
<path d="M12.1915 2.05976C12.1165 2.09726 9.80086 4.38007 7.0493 7.13632C2.57743 11.6129 2.04774 12.1613 2.01493 12.3207C1.97274 12.5598 2.01961 12.7613 2.16024 12.9394C2.37586 13.2301 2.46493 13.2441 3.79618 13.2441H4.99618V17.1254C4.99618 21.3394 4.99149 21.2551 5.25868 21.7848C5.53524 22.3332 6.17743 22.816 6.79149 22.9473C6.95555 22.9801 7.63993 22.9941 8.78368 22.9848C10.4524 22.9707 10.5274 22.966 10.6493 22.8723C10.7196 22.8207 10.8227 22.7176 10.8743 22.6473C10.9681 22.5207 10.9727 22.4504 10.9962 19.9941C11.0196 17.5379 11.0243 17.4676 11.1181 17.341C11.3571 17.0223 11.3665 17.0176 12.4962 17.0176C13.6259 17.0176 13.6352 17.0223 13.8743 17.341C13.9681 17.4676 13.9727 17.5379 13.9962 19.9941C14.0196 22.4504 14.0243 22.5207 14.1181 22.6473C14.1696 22.7176 14.2727 22.8207 14.3431 22.8723C14.4649 22.966 14.5399 22.9707 16.2087 22.9848C17.3524 22.9941 18.0368 22.9801 18.2009 22.9473C18.8149 22.816 19.4571 22.3332 19.7337 21.7848C20.0009 21.2551 19.9962 21.3394 19.9962 17.1254V13.2441H21.1962C22.5274 13.2441 22.6165 13.2301 22.8321 12.9394C22.9727 12.7613 23.0196 12.5598 22.9774 12.3207C22.9446 12.1613 22.4149 11.6129 17.9431 7.13163C15.0134 4.20195 12.8806 2.09726 12.7915 2.05976C12.604 1.98007 12.3743 1.98007 12.1915 2.05976Z" fill="black"/>
</svg>
