<svg width="24" height="24" viewBox="0 0 24 24" fill="none" xmlns="http://www.w3.org/2000/svg">
<path d="M11.2749 1.09074C11.0718 1.19444 10.9163 1.37593 10.8385 1.60062C10.8039 1.70865 10.791 3.78706 10.791 9.36982C10.791 13.5655 10.778 16.9878 10.7607 16.9792C10.7391 16.9705 10.6311 16.9143 10.5101 16.8538C9.8706 16.5125 9.06257 16.331 8.22429 16.331C5.53229 16.3353 3.54894 18.2927 4.08907 20.41C4.40451 21.6459 5.57982 22.6527 7.11379 22.9983C7.64527 23.1193 8.46195 23.1496 8.99776 23.0675C10.8774 22.778 12.2558 21.5897 12.4762 20.073C12.5021 19.8872 12.5194 17.8736 12.5194 14.7927C12.5194 12.0575 12.528 9.81489 12.541 9.81489C12.6361 9.81489 13.4787 10.26 13.833 10.4933C15.0947 11.3316 15.9805 12.589 16.3651 14.0927L16.4558 14.447L16.2398 14.7409C15.9849 15.0909 15.9546 15.1514 15.9157 15.3415C15.825 15.8211 16.2398 16.2964 16.7497 16.2964C17.1688 16.2964 17.3503 16.1495 17.8429 15.4149C18.9404 13.7816 19.5065 11.526 19.2386 9.86674C19.1133 9.08896 18.7762 8.23339 18.3268 7.55931C18.0633 7.1661 17.4497 6.52659 16.9744 6.14634C16.7713 5.98214 16.2225 5.59325 15.7602 5.27349C14.2694 4.25805 13.8459 3.89941 13.3447 3.22965C12.7787 2.47779 12.6015 2.15371 12.4762 1.65679C12.3854 1.30247 12.0052 1.00432 11.6336 0.999997C11.5385 0.999997 11.3786 1.04321 11.2749 1.09074Z" fill="black"/>
</svg>
