<svg width="24" height="24" viewBox="0 0 24 24" fill="none" xmlns="http://www.w3.org/2000/svg">
<path d="M10.875 0.0468473C9.37031 0.206222 8.08594 0.571847 6.72656 1.23747C4.51406 2.32497 2.74219 3.99372 1.51406 6.16404C1.15312 6.79685 1.07812 6.99841 1.07812 7.32654C1.08281 7.99216 1.56094 8.47966 2.21719 8.48435C2.76094 8.48435 3.02812 8.28747 3.39844 7.60779C4.07344 6.36091 4.75312 5.5031 5.68125 4.70622C8.11875 2.62497 11.3203 1.8656 14.3766 2.64841C19.5844 3.98435 22.7062 9.30466 21.3234 14.4843C20.4234 17.8547 17.7656 20.4797 14.3719 21.3515C11.8969 21.9843 9.19687 21.5906 7.02656 20.2734C5.49375 19.3453 4.27969 18.0562 3.42187 16.439C3.13594 15.9093 2.93906 15.6937 2.63437 15.5906C2.20312 15.4406 1.80469 15.5203 1.46719 15.8156C1.18125 16.064 1.07812 16.2984 1.07812 16.7015C1.07812 16.9922 1.09687 17.0531 1.33594 17.5078C3.25312 21.1828 6.85312 23.5922 10.9687 23.9531C14.0484 24.225 17.1094 23.2922 19.5234 21.3422C20.1469 20.8406 21.1219 19.8328 21.5906 19.2047C23.6203 16.4953 24.4078 13.1203 23.7891 9.76872C23.4469 7.92654 22.65 6.15935 21.4781 4.6406C21.0516 4.09216 20.0906 3.11247 19.5234 2.65778C17.8266 1.28903 15.8766 0.440597 13.6781 0.112472C13.1016 0.0280973 11.4328 -0.00940266 10.875 0.0468473Z" fill="black"/>
<path d="M12.9328 7.25624C12.3328 7.5703 12.1172 8.32499 12.4688 8.8828C12.5203 8.9578 12.961 9.42186 13.4532 9.91405L14.3438 10.8047L10.8657 10.8281C7.4016 10.8515 7.38285 10.8515 7.19066 10.9547C6.30942 11.4281 6.33754 12.6375 7.24223 13.0594L7.4766 13.1719H10.9172H14.3625L13.3969 14.1422C12.3516 15.2015 12.3094 15.2672 12.3094 15.7547C12.3141 16.2094 12.6 16.6359 13.0266 16.8187C13.2938 16.9312 13.7203 16.9078 13.9922 16.7672C14.3157 16.6031 17.4563 13.4391 17.6391 13.0969C17.9906 12.4266 17.9953 11.6437 17.6391 10.9265C17.461 10.5609 14.3532 7.4203 13.9969 7.24218C13.6594 7.07343 13.2703 7.07811 12.9328 7.25624Z" fill="black"/>
</svg>
