<svg width="24" height="24" viewBox="0 0 24 24" fill="none" xmlns="http://www.w3.org/2000/svg">
<path d="M11.4323 0.153023C10.0437 0.337533 8.93012 0.877564 7.96942 1.83162C5.84278 3.94224 5.61571 7.36693 7.44103 9.78356C9.19213 12.1057 12.3974 12.7627 14.8602 11.3001C17.0349 10.0086 18.1572 7.49744 17.6943 4.97279C17.262 2.63716 15.4367 0.738056 13.1659 0.256529C12.7336 0.166524 11.7773 0.10802 11.4323 0.153023Z" fill="black"/>
<path d="M7.32751 12.5917C5.39301 12.9427 3.62009 14.1803 2.51528 15.9489C2.28384 16.3224 2 16.957 2 17.1055C2 17.4025 2.82969 18.6086 3.61572 19.4501C5.53275 21.5067 7.89956 22.7308 10.6245 23.0818C11.1921 23.1583 12.7729 23.1538 13.3319 23.0818C15.5415 22.7893 17.5066 21.9387 19.2052 20.5392C19.7336 20.1071 20.7686 19.0046 21.179 18.442C21.6376 17.8075 22 17.2045 22 17.065C22 16.93 21.7555 16.3764 21.5415 16.0344C20.7948 14.8328 19.7555 13.8518 18.5895 13.2533C17.738 12.8167 16.6769 12.5152 16.1397 12.5557C15.9563 12.5692 15.8341 12.6142 15.6594 12.7267C15.0306 13.1362 14.8297 13.2488 14.4803 13.4063C13.6114 13.7978 12.7249 13.9688 11.7817 13.9283C10.5764 13.8788 9.56332 13.5458 8.55459 12.8617C8.33624 12.7132 8.1048 12.5827 8.0393 12.5647C7.96943 12.5512 7.88646 12.5332 7.85153 12.5242C7.81659 12.5152 7.58079 12.5467 7.32751 12.5917Z" fill="black"/>
</svg>
